/* XPM */
static char *_929b06f99be4d3bd705bd4e4949d7dd4wURlbbV2dUM7pN4[] = {
/* columns rows colors chars-per-pixel */
"64 64 248 2 ",
"   c #161619",
".  c #291D17",
"X  c #34241D",
"o  c #39281E",
"O  c #25211D",
"+  c #161C24",
"@  c #0F1B28",
"#  c #172639",
"$  c #2B2623",
"%  c #2D2A26",
"&  c #2C2C2B",
"*  c #252527",
"=  c #362C27",
"-  c #34322E",
";  c #38332D",
":  c #262A33",
">  c #343432",
",  c #383431",
"<  c #363933",
"1  c #383939",
"2  c #2D3131",
"3  c #442D23",
"4  c #58382A",
"5  c #4B3228",
"6  c #623F2D",
"7  c #4F413A",
"8  c #6B4836",
"9  c #674636",
"0  c #714E38",
"q  c #1C2D43",
"w  c #1D3149",
"e  c #1E3650",
"r  c #25374A",
"t  c #273A54",
"y  c #363C45",
"u  c #403845",
"i  c #2C425D",
"p  c #3B424B",
"a  c #2B4665",
"s  c #344B67",
"d  c #3A526B",
"f  c #395877",
"g  c #474949",
"h  c #554C4A",
"j  c #57524D",
"k  c #595755",
"l  c #4A5053",
"z  c #775749",
"x  c #6C564D",
"c  c #69625B",
"v  c #7D6354",
"b  c #465A73",
"n  c #49586B",
"m  c #4B627A",
"M  c #55687B",
"N  c #5E6366",
"B  c #686766",
"V  c #797677",
"C  c #72706E",
"Z  c #645A66",
"A  c #B65735",
"S  c #AC4327",
"D  c #B66F38",
"F  c #C66F39",
"G  c #C45031",
"H  c #895E4C",
"J  c #89644D",
"K  c #876757",
"L  c #926E57",
"P  c #B37150",
"I  c #8C7366",
"U  c #967967",
"Y  c #887D76",
"T  c #947D73",
"R  c #876E62",
"E  c #BE7F64",
"W  c #A95E40",
"Q  c #CE704A",
"!  c #CA7D61",
"~  c #E27A4B",
"^  c #7B817A",
"/  c #BA8350",
"(  c #9A8477",
")  c #8A867A",
"_  c #AB8D77",
"`  c #D28D4D",
"'  c #D58D70",
"]  c #EA9469",
"[  c #D5AC79",
"{  c #E6B476",
"}  c #E4A955",
"|  c #3D5D83",
" . c #566B85",
".. c #5B718A",
"X. c #597797",
"o. c #4A6B8A",
"O. c #687A91",
"+. c #5F7FA4",
"@. c #607FA0",
"#. c #807F83",
"$. c #66829E",
"%. c #77899B",
"&. c #5F82A6",
"*. c #6887A7",
"=. c #718DAB",
"-. c #7998B8",
";. c #6D8FB2",
":. c #7C9CC0",
">. c #888888",
",. c #958B85",
"<. c #99948A",
"1. c #9C9C9B",
"2. c #989694",
"3. c #899095",
"4. c #A6968B",
"5. c #A59C97",
"6. c #AF9486",
"7. c #9DA19D",
"8. c #ADA39B",
"9. c #A9A299",
"0. c #B5A79B",
"q. c #B6AC97",
"w. c #9A9BA4",
"e. c #859EB6",
"r. c #9AA8B6",
"t. c #ABAAA5",
"y. c #A8A8A7",
"u. c #B4ABA4",
"i. c #B5ABA6",
"p. c #BCB4AD",
"a. c #BEB9AD",
"s. c #BAB3A6",
"d. c #A8AEB5",
"f. c #ACB2B6",
"g. c #BCB5B2",
"h. c #BEB9B2",
"j. c #BCBBBB",
"k. c #B4B5B7",
"l. c #AEB1AE",
"z. c #C69D85",
"x. c #CE9D8D",
"c. c #C8A78A",
"v. c #CAA994",
"b. c #D3AC95",
"n. c #C7B39C",
"m. c #D3B69C",
"M. c #CFB38C",
"N. c #E4AC8A",
"B. c #C4B9A5",
"V. c #C2BBAC",
"C. c #C7B8AA",
"Z. c #D4BAA3",
"A. c #C3BCB4",
"S. c #C4BDBA",
"D. c #C4BAB2",
"F. c #CBACA2",
"G. c #E2BAA5",
"H. c #BAC1B9",
"J. c #EAC78F",
"K. c #CAC1AE",
"L. c #D6C3AA",
"P. c #CBC5B4",
"I. c #C6C1BC",
"U. c #CAC4BC",
"Y. c #CEC9BA",
"T. c #C9C4B5",
"R. c #D3CAB5",
"E. c #DACBB4",
"W. c #D3CDBC",
"Q. c #D8CAB9",
"!. c #D6D1BE",
"~. c #DBD2BE",
"^. c #E6CEB3",
"/. c #86A7CA",
"(. c #8EB1D5",
"). c #96B9DA",
"_. c #89ABD1",
"`. c #B8BCC3",
"'. c #A5BDD3",
"]. c #9CBFE0",
"[. c #C1BFC2",
"{. c #BDC3C9",
"}. c #BDC7D3",
"|. c #A6C2DA",
" X c #9EC1E1",
".X c #A2C4E3",
"XX c #9DC0DF",
"oX c #CAC5C2",
"OX c #CEC9C6",
"+X c #C3C6CB",
"@X c #C6C9CE",
"#X c #CDCBCB",
"$X c #C5C3C5",
"%X c #D4CDC1",
"&X c #D2CDCA",
"*X c #D3C7C6",
"=X c #D7D1C2",
"-X c #DAD4C4",
";X c #DED9C6",
":X c #D6D1CE",
">X c #DCD6CA",
",X c #DED9CA",
"<X c #CACDD3",
"1X c #C5CAD5",
"2X c #CED1D6",
"3X c #CBD3DC",
"4X c #D4D4D4",
"5X c #D9D4D2",
"6X c #DCD9D2",
"7X c #D2D5DA",
"8X c #DAD9DA",
"9X c #D1CED5",
"0X c #E2DCCC",
"qX c #E1D7C5",
"wX c #E3DED2",
"eX c #E3DBDA",
"rX c #E6E1D5",
"tX c #E9E3D5",
"yX c #E7E3D8",
"uX c #EAE6DB",
"iX c #EDE8DE",
"pX c #EDE5D4",
"aX c #DBDDE3",
"sX c #D5DCE3",
"dX c #CCD4E0",
"fX c #DDE3EB",
"gX c #DCE1E6",
"hX c #DFE8F0",
"jX c #EDE9E3",
"kX c #E2E5EB",
"lX c #E4E9EE",
"zX c #EDECEA",
"xX c #E8E6E5",
"cX c #F1ECE5",
"vX c #F2EDE9",
"bX c #F3F2ED",
"nX c #F3F0E5",
"mX c #E6EBF2",
"MX c #E9EDF3",
"NX c #E2E7F4",
"BX c #EBF1F6",
"VX c #EEF4F9",
"CX c #F4F5F2",
"ZX c #F9F9F5",
"AX c #FDFDFD",
"SX c #F4F7F7",
"DX c #EFF1EB",
"FX c #E4E0E0",
/* pixels */
"&X&X&X&X&X&XOXj.y > 1 > C oXOX*XOXoXS.t.( K J U 4.5.8.t.8.u.i.h.A.A.A.D.D.A.D.D.D.D.D.h.p.p.p.p.s.s.p.U.I.p.8.0.s.U.oXoXoXD.K 4 ",
"&X&X&X&X&X&Xg.g p 1 > V 1 ,.OX&XOXOXoXoXoXI.D.4.I v K T 4.5.u.i.t.i.s.h.D.D.D.D.D.D.D.D.D.h.p.p.p.p.p.I.s.0.u.p.U.oXoXoXs.z 4 4.",
":X:X&X&X&X&X$XN l.y.>.B g h i.*XOXOXoXoXoXoXoX$XI.S.u.,.4.5XxX5XU.s.8.8.u.i.p.D.D.D.D.D.D.D.D.h.p.p.p.p.u.u.h.oXU.oXoX8.9 9 u.I.",
":X:X:X:X&X&X@XC l.y.1.1.t.j Y U.&X&XOXoX#X<.5.i.S.S.U.zXZXDX6X%Xa.<.p.4.5.8.8.8.u.s.p.D.D.D.D.D.D.p.p.p.p.A.oXoXoXoX,.4 v D.I.oX",
":X:X:X:X:X&XOXV 1.1.3.2.y.j 4.OX&X&X&XOX4Xc c Y >.2.OXAXZXyX,X=XV.k 9.8.J K T 4.9.9.8.u.i.s.a.D.D.a.p.p.h.h.oXoXI.I 4 ) I.U.oXoX",
":X:X:X:X:X&X#XV y.y.7.y.9.j u.&X&X&X&X#X4Xx 0 c V Y :XZXpX{ m.,XY.A.a.a.D.u.( K v K ( 4.9.8.8.u.i.p.p.a.h.h.oXp.z 4 5.I.I.oXoXoX",
":X:X:X:X:X:X&XV B >.7.l.7.c A.&X&X&X:X:X7XV x v C V uXJ.} F / Q.W.T.V.V.V.S.S.S.D.8.( K K I ( 4.9.9.8.0.i.s.0.8 x i.I.I.oXoXoXoX",
":X:X:X:X:X:X&X$X>.B g g l C oX&X&X&X:X4X#Xy.2.3.>.l.nX{ ` D D / B.T.V.V.a.h.A.I.S.A.A.D.s.4.T K v I ( 4.4.I 4 I D.I.I.oXoXoXoXoX",
"5X5X5X5X:X:X:X:X&X#Xy.y.1.5.OX&X:X:X:X5Xk.t.t.t.t.T.J.} ` F D D P n.a.a.a.a.h.T.S.A.A.A.A.D.h.h.u.,.R z 9 4 ,.S.S.I.$XoXoXoXoXoX",
"5X5X5X5X:X:X:X:X:X&Xy.OX&X&X&X&X:X:X:X&Xg.t.t.t.u.J.J.} ` ` ` / P s.s.a.a.a.A.D.I.I.A.A.A.A.A.A.A.D.p.u.v T S.I.I.I.$XoXoXoXoXoX",
"5X5X5X5X:X5X5X:X:XI.p.:X:X:X:X:X:X:X&X&X&XOXoXA.^.^.{ { [ [ [ _ c.B.B.B.B.V.T.A.A.I.A.A.I.A.A.A.D.D.D.p.T T S.I.I.I.oXoXoXoXoXOX",
"5X5X5X5X5X5X5X5X5XOXg.:X:X:X:X:X:X:X&X&X&X&X&X!.^.E.W.nXnXE.M.c.c.c.c.n.B.K.K.D.D.A.I.I.I.I.A.A.A.D.D.a.4.R S.U.oXoXoXoXoXoXoXOX",
"5X5X5X5X5X5X5X5X:XS.i.:X5X5X:X:X:X:X:X&X&X&X&X&X&X&XeX0X~.E.E.E.E.E.R.R.W.W.Y.D.V.D.A.u.u.A.A.A.A.A.A.A.8.v U.oXoXoXoXoXoXoXOXOX",
"8X8X5X5X5X5X5X5X:Xj.B ,.oX5X:X5X:X:X:X&X:X&X&X&XeXZXCXbXnXjXuXtXrX0X,X>X>X>X-X-X%X0.0.) 5.D.D.A.A.A.A.A.i.z U.oXoXoXoXoXoXOXOXOX",
"8X8X8X5X5X5X5X5X:X#X>.V 5.:X:X:X:X:X:X:X&X&X5XbXAXAXAXZXCXbXvXcXiXrX0X0X>X,X,X>X>X>Xu.,.<.i.p.D.A.A.A.A.D.z U.oXoXoXoXoXOXOXOX&X",
"8X8X8X5X5X5X5X5X:X&XS.y.&X:X:X:X:X:X:X:X:X6XZXAXAXAXAXCXbXbXvXjXjXuXwXwX>XwXwX,X,X>X>XA.2.l.s.D.D.A.A.A.D.z A.oXoXoXoXoXOXOXOX&X",
"8X8X8X5X>.V ,.t.I.&X:X&X:X:X:X:X:X:X:X:X6XZXAXAXAXAXAXZXCXCXjXzXjXuXwXwX,X6X,X,X,X>X-X>X%XH.8.s.V.A.A.S.A.z s.oXoXoXoXoXOXOX&X&X",
"8X5X5X5Xc < > - - 1 j B >.5.S.&X&X&X&X6XAXAXAXAXAXAXAXCXbXbXzXxXxXiXrXwX6X,X,XwX6X>X>X-X%X%Xs.0.s.D.A.S.S.I u.oXoXoXoXj.h.OXOX&X",
"8X5X4X5Xj 1 < > , - - - - = = , h B 2.ZXAXAXAXAXAXAXZXCXbXbXzXjXuXyXwXwXwXwX>X6XeX:X,X=X%X%XR.V.i.S.6XkXMXNXfX3X@X#Xy.5.OXOX&X&X",
"5X4X4X4Xg < > > > - , , , ; ; ; - 1 4XAXAXAXAXAXAXZXCXCXvXjXzXjXrXwXyXwX0X0X-X>XwX6X>X-X%X%XW.Y.A.zXAXVXVXNXsX3X+X+X$XOXOX&X&X&X",
"4X4X5X#Xg > > > , , , , , ; ; ; - t.AXAXAXAXAXAXZXCXCXvXvXjXjXyXwXwXyXyXwX,X>X,X6XwX-X-X=X%X%XW.T.( _ q.U.4XsX<X+X$XOXOXOX#X&X&X",
"4X4X9X$X- $ % = - - - - - - - - C AXAXAXAXAXAXZXCXCXvXvXjXjXuXrXwXwXrXwX0X-X>X6X6X,X>X-X=XW.%XW.Y.q.0 H L U _ _ 0.C.S.oXh.l.w.y.",
"4X<X<Xk.$ * * * O O O $ $ $ % 1 xXAXAXAXAXAXZXZXCXbXvXjXjXuXrXwXrXrXwX0X,X>X,XwX,X,X-X=XW.W.W.W.Y.U.U 0 0 8 9 0 J L U _ 6.T Z u ",
"9X<X<Xy.> 2 > 2 & $ & % % $ $ 1.AXAXAXAXAXAXZXbXbXzXvXjXuXuXwX0XrXwX0X0X,X,X,X,X,X>X-X=XW.W.W.W.W.Y.D.8 9 6 8 8 8 8 8 8 0 H L U ",
"<X<X<Xw.1 1 1 1 > & > > - - h ZXAXAXAXAXAXZXbXvXvXDXjXiXuXrX,X0XwXwX0X,X0X0X,X,X,X-X-X=XW.W.W.W.R.Y.U.Y = 5 4 4 9 9 8 8 8 8 8 8 ",
"<X<X<X3.& > > > - & > > > - l.AXAXAXAXZXAXZXvXcXvXzXjXuXyXrXwX,X0X0XwX0X0X0X,X>X>X-X=X=XW.W.W.W.W.Y.U.a.X o o 3 5 5 5 4 4 6 9 8 ",
"<X<X@X>.% % % % % & > > - g SXAXAXAXZXZXAXCXjXjXvXjXiXuXrXrX0X,XqX,X0XwX0X,X0X-X>X-X-X=X!.W.W.W.W.Y.Y.U.( 9 = X o = = 3 3 3 5 5 ",
"<X@X+XV $ $ $ $ $ - < < > 2.AXAXAXAXZXZXZXvXiXjXjXiXuXrXrXwX0X;X;X,X0XrX0X,X,X>X-X>X-X-X=X=XW.W.W.Y.Y.U.q.J 4 X o o o X X X o = ",
"<X@X+XB % $ $ $ $ - < < < eXAXAXAXZXZXZXCXvXuXjXuXuXuXrXrX0X0X,X,X0X0XwX0X,X,X,X>X-X-X=X=X=X%XW.W.Y.U.U.T.8 X . . . . . o = 3 3 ",
"<X@X+Xk & & & & % - < < k AXAXAXAXZXCXZXbXjXuXuXuXuXuXrXrX0X0X,X,X0X0X0X0X,X,X,X>X-X=X-X-X=X%XW.W.Y.Y.U.T.Y = . . . . . X o X X ",
"@X@X+Xl - - - - & > < < >.AXAXAXAXCXCXbXvXjXuXuXuXuXyXrXrX0X,X0X0X0X0X0X0X,X,X,X,X-X-X-X=X=X%X%XW.R.Y.Y.T.<.c ) B j 7 5 =       ",
"@X+X{.g - - - - & > < < $XAXAXAXZXCXCXvXcXjXuXrXyXuXyXrXrX0X0X0X0X0X0X0X0X,X,X>X,X-X=X;X-X=X%X%XW.W.Y.U.T.0.7 7 h h h k c B k * ",
"+X+X@X1 - - - & 1 c < < CXAXAXAXZXbXbXvXjXiXuXrXyXuXyXrXrX0X0X0X0X0X0X0X0X,X,X,X,X-X=X-X-X=X=X%XW.W.Y.Y.K.V.( U L v z x h h V r.",
"$X+X{.> & & & l C ,.1 g AXAXAXAXCXbXvXcXjXiXuXrXrXyXrXrX0X0X0X0X0X0X0X0X0X,X,X0X,X-X=X-X-X=X=X%XW.W.Y.Y.K.V.L J J L L ( y.'.).].",
"k.@Xd.> > > l >.h.8.B N AXAXAXZXbXnXcXcXjXuXyXrXwXrXyXrXwX0X0X0X0X0X0X0X0X,X,X0X;X-X-X-X-X=X=X=XW.W.Y.Y.K.V.U J J T w.'..X.X).).",
"1.f.%.2 2 & >.y.t.y.<.C ZXAXAXZXbXvXjXjXiXiXyXrXwXrXyXrXwX0X0X0X0X0X0X0X,X,X,X,X;X-X-X-X-X=X=X=XW.W.R.Y.K.V.( ,.r.|..X.X X).).).",
">.V O.l 1 g C d.2.d.^ B AXAXZXbXvXvXcXiXuXiXrXrXwXwXrXrX0XrX0X0X0X0X0X0X,X,X;X;X;X;X-X-X=X=X=X!.W.W.R.T.T.a.`..X X X X.XXX).).(.",
"c z K R R I T T T ( ( ,.ZXZXCXbXvXvXvXuXuXiXrXrXrXwXrXrXrXrX0X0X0X0X0X0X;X,X;X;X;X-X-X-X-X=X=X!.W.W.P.T.T.a.|..X.X|. X).).(.(._.",
"j <.5.1.1.2.2.<.,.,.,.2.AXZXbXbXvXvXvXtXtXiXyXyXyXrXrXwXwXrXwX0X0X,X0X0X,X,X;X-X;X-X-X-X=X=X=XW.W.R.P.T.T.a.|..X X].).).(._./.-.",
"k g.+X<X2X2X2X2X7X7X7X7XAXZXbXbXvXvXcXtXtXuXyXtXrXrXrXwXwXrXwX0X0X,X0X0X0X;X-X-X-X-X-X-X=X=X=XW.W.R.Y.T.V.s.|.).).).(._./.:./.-.",
"B g.[.$X+X+X+X+X+X+X@X@XCXZXbXbXvXvXiXuXyXuXyXtXrXrXrXwX0XwXwX0X0X,X0X0X;X;X-X-X-X-X-X=X!.!.!.W.W.R.R.K.a.l.).(._./././.-.-.=.=.",
"C h.S.<X<X2X2X2X2X2X7X7XkXZXbXbXbXjXuXiXyXyXyXtXrXrXrXwX0X0XwXwX0X0X,X0X,X;X-X-X-X-X-X=X!.=X!.W.W.Y.Y.K.s.d.(././.-.-.-.=.=.*.*.",
"Y h.j.<X<X<X2X2X2X2X2X2XaXCXbXbXbXiXuXiXyXyXyXtXyXrXyXrX0X0X0X0X0X,X,X0X;X-X-X-X=X-X=X!.~.=XW.W.R.R.T.V.s.r./.-.-.-.=.*.=.*.$.$.",
",.j.j.<X<X<X<X2X<X<X2X2X7XbXbXbXbXiXtXiXuXyXrXtXyXrXrXwX0X0X0X0X0X,X,X0X;X-X-X-X-X=X~.~.=X!.W.R.R.Y.K.B.0.e.-.;.*.$.$.$.@.@.O...",
"5.j.j.@X<X<X<X<X<X<X<X2X2XzXbXbXvXjXtXuXuXuXrXyXyXrXwX0X0X0X0X0X0X0X;X;X-X-X-X-X-X!.=X=XW.W.W.R.R.K.V.B.y.=.$.*.@.$....... . . .",
"9.j.j.@X<X<X<X<X<X<X<X<X<X7XbXvXcXuXtXiXiXyXyXrXtX0X0X0X0X0X,XwX0X;X;X-X~.-X-X-X-X=X=X=XW.W.W.P.P.V.B.q.3.=.X..... ...M m m m m ",
"t.j.j.+X@X<X<X<X<X<X<X<X<X{.8XcXiXwXuXuXiXyXrXrX0X0X0XqXqX0X0X0X0X;XqX-X~.-X-X-X-X!.=X=XY.Q.R.P.P.B.s.1... ... .M m b M b b b d ",
"t.g.j.+X+X+X@X<X@X<X<X<X<X<X2XjXiXuXuXuXuXyXtXrXrX0X0X;X0XwX0XqXqX-X-X~.~.=X-X!.=X!.=XW.Y.R.P.K.B.n.9... .m b b b n d s s s i t ",
"t.g.j.{.+X+X+X@X@X@X@X<X<X<X+X4XuXuXuXtXtXrXrXrXwXwXqX0X0X0X0X-X;X;X-X~.~.~.-XW.=XW.W.Q.P.K.K.B.q.9.M b b b d d i t q # q r r r ",
"t.i.k.`.`.{.{.{.+X+X+X<X<X<X$X<X6XuXtXwX0X0XwX0X0X0XqXqX0X0X-X~.~.-X~.~.!.~.W.W.!.Q.R.R.K.C.B.q.4.M b d s t r # # q r r r r r r ",
"<.5.y.l.l.f.k.k.k.j.j.`.{.$Xj.k.k.6XyX0XwX0XqXwX0XqXqXqXqX-X~.!.!.!.!.E.E.!.E.W.R.K.R.C.B.n.q.4.M b d s t w # # t t t t t t t r ",
",.<.2.2.2.2.2.3.>.>.>.>.V V C B N k V >X0X0XqXqX~.qXqXqX~.~.E.E.E.L.E.L.L.L.L.L.R.L.C.C.q.6.>.M s s a t t q # # a a t r q # # w ",
"= h : & & & * * * * * & > 1 1 g l j k V U.0XqX0XqXqXqX~.E.E.L.L.L.L.L.L.L.L.Z.L.B.n.n.6.3.%.o.m d s a t t q # # f f s a a f o.X.",
"V 2.k.l.>.>.3.2.w.y.d.f.`.`.{.{.}.+X`.1X@X2X6X0X0X0XqX~.E.L.L.Z.Z.Z.Z.m.Z.Z.Z.m.v.c._ H *.X.m f s s a t w # # @ # a f X.&.+.+.X.",
"BXBXMXMXmX1X{.}.}.}.1X1X1X1X3X3X3X1X3XNXNXmXmXeXb.E.~.L.m.Z.Z.m.b.b.b.b.b.v.v.c.6.A A B o.o.f f d a i e q # @ r | &.;.*.*.+.X.X.",
"VXmX#XS.#X7X3X3X3X3X3XdXfXmXmXMXMXVXSXSXSXSXSXCXG.' ' m.m.m.m.b.b.c.c.c.z.[ z.4.O.A W M o.| f d a t q # y n O.&.;.&.&.X.X. .b n ",
"SXMX8Xs.q.u.7XmXfXkXkXkXMXMXBXVXSXSXVXSXSXSXSXSXiX] Q zXuX,XE.Z.m.b.c.z.z.v.&X}.w.W H i t w q # # + + : : : : p m s t : + + + + ",
"SXBXkXI.s.:XkXmXMXmXmXmXkXkXmXlXmXmXmXmXMXMXMXBXBX^.Q eXBXBXBXxX6X:X5XFXlXMXmXaXF.F _ d.w.3.V N g p y p p p y r 2 + + + + + 1 > ",
"SXVXMXkX:X#XaX{.8XkXmXMXMXlXkXlXlXmXmXmXMXMXmXlXmXwX] b.mXhXNXmXMXmXhXfXfXsX2X$X! F 5.l.l.y.5.1.2.1.1.y.d.f.d.r.`.y.@X<X2X7XfXkX",
"SXSXVXMXmXlXkXgXkXlXlXmXlXlXgX8XgXkXkXlXMXMXmXMXMXzXN.Q eXmXmXkXfXgXsX7X2X<X$X0.Q A 4.5.5.5.9.l.[.@X4XsXaXaXaXfXfXkXkXH.sXmXmXMX",
"MXBXMXMXmXmXmXMXaXmXmXMXMXMXMXmXmXMXMXmXmXmXmXMXMXlXN.~ x.lXkXgXaXsX7X7X@X@XC.P G S ,.5.8.h.#X7XaXaXgXaXgXkXkXmXmXmXmXlXmXmXBXBX",
"aXaXaXgXkXkXkXkXkXlXlXlXlXmXmXmXlXmXMXmXmXMXmXmXmXlXN.Q A Z.8XR.v.x.x.v.Z.x.P A S S P 0.S.9X7XaXaXfXfXkXkXlXlXMXMXMXMXMXBXMXBXBX",
"4X8XaXaXaXgXaXkXkXkXkXmXlXmXmXlXlXlXmXlXmXmXmXlXzXFXN.] ~ Q ' x.' ` ' ] ! E E ' x.x.v.v.0.9XsXsXaXaXfXkXkXlXlXmXmXMXMXmXMXBXBXBX",
"4X8XaXaXkXkXkXkXkXkXkXlXmXmXlXmXmXlXlXkXlXkXxXG.' ! Q ] ] ] ] ] G.N.] b.*XkXlXmXMXmXNXNXNXfXkXfXhXfXfXfXkXlXlXgXgXlXkXmXmXmXmXmX"
};
